<svg id="Layer_1" data-name="Layer 1" xmlns="http://www.w3.org/2000/svg" width="360.19" height="108.39" viewBox="0 0 360.19 108.39">
  <title>0</title>
  <g>
    <path d="M161.4,90.16h-5.64V67.32H130.19V90.16h-5.64V41.62h5.64V62.27h25.57V41.62h5.64V90.16Z" fill="#fff"/>
    <path d="M171.65,43.91a3.66,3.66,0,0,1,.93-2.77,3.44,3.44,0,0,1,4.62,0,3.6,3.6,0,0,1,1,2.76,3.65,3.65,0,0,1-1,2.77,3.22,3.22,0,0,1-2.29.91,3.18,3.18,0,0,1-2.32-.91A3.73,3.73,0,0,1,171.65,43.91Zm6,46.25h-5.51V53.77h5.51V90.16Z" fill="#fff"/>
    <path d="M204.34,90.82a15.75,15.75,0,0,1-6.49-1.31,12.2,12.2,0,0,1-4.93-4h-0.4a48.82,48.82,0,0,1,.4,6v15h-5.51V53.77h4.48l0.76,5h0.27a12.8,12.8,0,0,1,4.95-4.32,15,15,0,0,1,6.47-1.33q7.24,0,11.17,4.95t3.93,13.88q0,9-4,13.93T204.34,90.82Zm-0.8-33q-5.58,0-8.07,3.09t-2.56,9.83v1.23q0,7.67,2.56,11t8.2,3.3a8.53,8.53,0,0,0,7.39-3.82q2.67-3.82,2.67-10.53t-2.67-10.44A8.79,8.79,0,0,0,203.55,57.79Z" fill="#fff"/>
    <path d="M237.79,90.16h-5.64V46.63H216.77v-5h36.39v5H237.79V90.16Z" fill="#fff"/>
    <path d="M267.86,90.82q-8.07,0-12.73-4.91t-4.67-13.65q0-8.8,4.33-14a14.39,14.39,0,0,1,11.64-5.18q6.84,0,10.82,4.5t4,11.87V73H256.17q0.17,6.41,3.24,9.73T268.06,86a29.31,29.31,0,0,0,11.62-2.46v4.91a29.17,29.17,0,0,1-5.53,1.81A31.07,31.07,0,0,1,267.86,90.82Zm-1.49-33.1a9,9,0,0,0-7,2.86,13.16,13.16,0,0,0-3.07,7.9h19q0-5.21-2.32-8A8.18,8.18,0,0,0,266.37,57.72Z" fill="#fff"/>
    <path d="M312.87,80.23a9.12,9.12,0,0,1-3.79,7.84q-3.79,2.76-10.62,2.76-7.24,0-11.29-2.29V83.42a27.24,27.24,0,0,0,5.63,2.09,23.49,23.49,0,0,0,5.79.76,13.14,13.14,0,0,0,6.64-1.38,4.74,4.74,0,0,0,.48-7.84,29,29,0,0,0-7.19-3.57,39,39,0,0,1-7.22-3.3,9.86,9.86,0,0,1-3.19-3.2,8.36,8.36,0,0,1-1-4.28,8.16,8.16,0,0,1,3.62-7q3.62-2.57,9.93-2.57A29,29,0,0,1,312.1,55.5l-2,4.48a26.38,26.38,0,0,0-9.93-2.26,11.42,11.42,0,0,0-5.91,1.23,3.8,3.8,0,0,0-2,3.39,4.12,4.12,0,0,0,.75,2.49,7.36,7.36,0,0,0,2.41,2,53.63,53.63,0,0,0,6.38,2.69q6.47,2.36,8.75,4.75A8.38,8.38,0,0,1,312.87,80.23Z" fill="#fff"/>
    <path d="M333.71,86.28a19.61,19.61,0,0,0,5-.66v4.22a10.08,10.08,0,0,1-2.64.71,19.84,19.84,0,0,1-3.14.28q-10.56,0-10.56-11.12V58.05h-5.21V55.4l5.21-2.29,2.32-7.77h3.19v8.43h10.56v4.28H327.87V79.47a7.36,7.36,0,0,0,1.56,5A5.43,5.43,0,0,0,333.71,86.28Z" fill="#fff"/>
  </g>
  <g>
    <path d="M135.9,8.2s-4.4-.5-6.21-0.5c-2.64,0-4,.94-4,2.79,0,2,1.13,2.48,4.8,3.48,4.52,1.26,6.15,2.45,6.15,6.12,0,4.71-2.95,6.75-7.19,6.75a45.74,45.74,0,0,1-7-.85l0.35-2.79s4.24,0.57,6.47.57c2.67,0,3.89-1.19,3.89-3.45,0-1.82-1-2.45-4.27-3.23-4.65-1.19-6.65-2.61-6.65-6.34,0-4.33,2.86-6.12,7.16-6.12a47.65,47.65,0,0,1,6.81.75Z" fill="#fff"/>
    <path d="M145.1,4.62h6l4.8,16.79,4.8-16.79h6.42v22h-4v-19h0l-5.37,18h-3.64l-5.37-18H148.1v19h-3v-22Z" fill="#fff"/>
    <path d="M221.1,4.62h15v3h-6v19h-3v-19h-6v-3Z" fill="#fff"/>
    <path d="M251.58,4.62c4.27,0,6.56,1.79,6.56,5.78,0,2.61-.82,4-2.54,4.93,1.85,0.72,3.08,2.15,3.08,5.1,0,4.4-2.67,6.2-6.84,6.2H243.1v-22h8.48Zm-4.48,3v7h4.42c2.13,0,3.08-1.49,3.08-3.59s-1.07-3.41-3.2-3.41h-4.3Zm0,9v7h4.55c2.17,0,3.45-1,3.45-3.58a3.27,3.27,0,0,0-3.52-3.42H247.1Z" fill="#fff"/>
    <path d="M267.1,4.62h14v3h-10v7h8v2h-8v7h10v3h-14v-22Z" fill="#fff"/>
    <path d="M293.37,4.62h6.94l5.34,22h-3.52l-1.59-6h-7.4l-1.59,6h-3.48Zm0.46,12h6l-2.23-9h-1.57Z" fill="#fff"/>
    <path d="M317.1,20.62v6h-4v-22h8.46c4.74,0,7.28,2.9,7.28,7.68,0,3-1.22,5.95-3.52,7l3.55,7.31H325l-3.11-6H317.1Zm4.46-13H317.1v9h4.52c2.64,0,3.64-2.32,3.64-4.55C325.26,9.63,324.07,7.62,321.56,7.62Z" fill="#fff"/>
    <path d="M179.67,4.62h6.94l5.34,22h-3.52l-1.59-6h-7.4l-1.59,6h-3.48Zm0.46,12h6l-2.23-9h-1.57Z" fill="#fff"/>
    <path d="M203.1,20.62v6h-3v-22h7.76c4.74,0,7.28,2.9,7.28,7.68,0,3-1.22,5.95-3.52,7l3.55,7.31h-3.83l-3.11-6H203.1Zm4.76-13H203.1v9h4.82c2.64,0,3.64-2.32,3.64-4.55C211.56,9.63,210.37,7.62,207.86,7.62Z" fill="#fff"/>
  </g>
  <g>
    <polygon points="90.91 -0.38 5.82 -0.38 1.1 -0.38 1.1 5 1.1 90.1 1.1 94.62 5.82 94.62 90.91 94.62 96.1 94.62 96.1 90.1 96.1 5 96.1 -0.38 90.91 -0.38" fill="#50e4ea"/>
    <g>
      <path d="M41.14,54.36c0,3.49,0,7,0,10.47C41.17,60.33,41.14,54.36,41.14,54.36Z" fill="#173647"/>
      <path d="M73.48,67.78A9,9,0,0,1,61.95,76c-4.3-1.39-6.46-4.43-6.52-9.35,0-3.27.07-10.45,0.07-10.45s3.7,0.75,5.6,1.2c0,2.93,0,5.85,0,8.77a10.54,10.54,0,0,0,.18,2,2.89,2.89,0,0,0,2.6,2.47c1.8,0.14,3-.51,3.5-2a7,7,0,0,0,.3-2.12c0-2.6,0-11.73,0-11.73L54.15,51.85c-3.18-.68-6.37-1.3-9.54-2-3.74-.82-7.47-1.69-11.2-2.54C32.2,47,23.25,44.85,23.25,44.85s-0.09-13.93,0-17.73a8.68,8.68,0,0,1,7.64-8.36,8.87,8.87,0,0,1,9.65,6,14.74,14.74,0,0,1,.55,3.83c0.06,3.32,0,10.51,0,10.51L35.4,38s0-7.28,0-10.32a3.18,3.18,0,0,0-6-1.62,4.55,4.55,0,0,0-.49,2c0,3.12,0,12.46,0,12.46l17.56,3.89c4,0.88,8.06,1.69,12.07,2.6,3,0.69,14.92,3.67,14.92,3.67S73.51,64.27,73.48,67.78Z" fill="#173647"/>
      <path d="M41.13,64.83c0,0.41,0,.81,0,1.19s0,0.92,0,1.32a8.93,8.93,0,0,1-17.83.87c-0.12-4.56,0-18.91,0-18.91s4,1,5.58,1.22c0,3.85,0,7.64,0,11.43,0,2,0,4,.18,6s1.58,2.83,3.55,2.71a3.07,3.07,0,0,0,2.83-3.22c0-4.81,0-15.55,0-15.55l5.76,1.24S41.17,60.33,41.13,64.83Z" fill="#173647"/>
      <path d="M73.72,46.13s-2.62-.73-5.62-1.62V41.56c0-4.52-.18-9-0.21-13.56a3.29,3.29,0,0,0-3.63-3.56c-1.79.05-3.07,1.45-3.09,3.64q-0.06,6.78-.07,13.56v1.52L55.49,42s0-1.36,0-2.17c0-4.32,0-8.65.11-13,0.12-5.27,6-9.33,11-7.91a9.48,9.48,0,0,1,6.9,9.19C73.54,32,73.72,46.13,73.72,46.13Z" fill="#173647"/>
    </g>
  </g>
  <g>
    <path d="M351.64,89.71a1.08,1.08,0,0,1-.41.9,1.8,1.8,0,0,1-1.14.33,2.72,2.72,0,0,1-1.19-.23V90a3.23,3.23,0,0,0,.62.22,2.64,2.64,0,0,0,.61.08,1,1,0,0,0,.61-0.16,0.52,0.52,0,0,0,.2-0.42,0.53,0.53,0,0,0-.18-0.41A2.73,2.73,0,0,0,350,89a2,2,0,0,1-.83-0.54,1.15,1.15,0,0,1-.24-0.73,1,1,0,0,1,.38-0.84,1.58,1.58,0,0,1,1-.31,3,3,0,0,1,1.22.27l-0.22.57a2.68,2.68,0,0,0-1-.24,0.78,0.78,0,0,0-.52.15,0.49,0.49,0,0,0-.18.39,0.55,0.55,0,0,0,.07.29,0.72,0.72,0,0,0,.23.22,3.91,3.91,0,0,0,.58.28,3.17,3.17,0,0,1,.69.37,1.08,1.08,0,0,1,.32.38A1.15,1.15,0,0,1,351.64,89.71Z" fill="#fff"/>
    <path d="M354.62,90.87l-1.24-3.58h0q0,0.8,0,1.49v2.08h-0.64V86.59h1L354.94,90h0l1.22-3.41h1v4.28H356.5V88.75q0-.32,0-0.83t0-.62h0l-1.29,3.57h-0.62Z" fill="#fff"/>
  </g>
  <g>
    <path d="M135.9,8s-4.4-.5-6.21-0.5c-2.64,0-4,.94-4,2.79,0,2,1.13,2.48,4.8,3.48,4.52,1.26,6.15,2.45,6.15,6.12,0,4.71-2.95,6.75-7.19,6.75a45.74,45.74,0,0,1-7-.85L122.78,23s4.24,0.57,6.47.57c2.67,0,3.89-1.19,3.89-3.45,0-1.82-1-2.45-4.27-3.23-4.65-1.19-6.65-2.61-6.65-6.34,0-4.33,2.86-6.12,7.16-6.12a47.65,47.65,0,0,1,6.81.75Z" fill="#fff"/>
    <path d="M145,4.76h6.06l4.8,16.79,4.8-16.79h6.09v21.5h-3.52V7.68h-0.18l-5.37,17.7h-3.64l-5.37-17.7H148.5V26.27H145V4.76Z" fill="#fff"/>
    <path d="M220.73,4.76h15.69V7.87h-6.06V26.27h-3.52V7.87h-6.12V4.76Z" fill="#fff"/>
    <path d="M251.58,4.76c4.27,0,6.56,1.6,6.56,5.59,0,2.61-.82,3.89-2.54,4.83,1.85,0.72,3.08,2,3.08,5,0,4.4-2.67,6.09-6.84,6.09h-8.41V4.76h8.16Zm-4.68,3v6.15h4.61c2.13,0,3.08-1.07,3.08-3.17s-1.07-3-3.2-3h-4.49Zm0,9.1v6.37h4.74c2.17,0,3.45-.69,3.45-3.27s-1.82-3.11-3.52-3.11h-4.68Z" fill="#fff"/>
    <path d="M267.32,4.76h13.56v3H270.8V13.9H279v3H270.8v6.31h10.08v3.08H267.32V4.76Z" fill="#fff"/>
    <path d="M293.37,4.76h6.94l5.34,21.5h-3.52L300.54,20h-7.4l-1.59,6.31h-3.48Zm0.46,12.12h6l-2.23-9.2h-1.57Z" fill="#fff"/>
    <path d="M316.88,19.89v6.37H313.4V4.76h8.16c4.74,0,7.28,2.72,7.28,7.49,0,3-1.22,5.79-3.52,6.86l3.55,7.16H325l-3.11-6.37h-5.05Zm4.68-12.12h-4.68v9.1h4.74c2.64,0,3.64-2.37,3.64-4.6C325.26,9.83,324.07,7.78,321.56,7.78Z" fill="#fff"/>
    <path d="M179.67,4.76h6.94l5.34,21.5h-3.52L186.84,20h-7.4l-1.59,6.31h-3.48Zm0.46,12.12h6l-2.23-9.2h-1.57Z" fill="#fff"/>
    <path d="M203.18,19.89v6.37H199.7V4.76h8.16c4.74,0,7.28,2.72,7.28,7.49,0,3-1.22,5.79-3.52,6.86l3.55,7.16h-3.83l-3.11-6.37h-5.05Zm4.68-12.12h-4.68v9.1h4.74c2.64,0,3.64-2.37,3.64-4.6C211.56,9.83,210.37,7.78,207.86,7.78Z" fill="#fff"/>
  </g>
</svg>
