<svg id="Layer_1" data-name="Layer 1" xmlns="http://www.w3.org/2000/svg" viewBox="0 0 624.283 108.389"><defs><style>.cls-1{fill:#fff;}.cls-2{fill:#23d96c;}.cls-3,.cls-4{fill:#173647;}.cls-4{fill-rule:evenodd;}</style></defs><title>Master</title><path class="cls-1" d="M144.509,46.965q-8,0-12.634,5.329t-4.632,14.593q0,9.531,4.466,14.726t12.733,5.2a43.455,43.455,0,0,0,11.588-1.826V89.93a35.679,35.679,0,0,1-12.451,1.893q-10.725,0-16.552-6.508T121.2,66.821a29.189,29.189,0,0,1,2.806-13.149,20.151,20.151,0,0,1,8.1-8.7,24.529,24.529,0,0,1,12.468-3.055,30.092,30.092,0,0,1,13.348,2.789l-2.391,4.848A25.737,25.737,0,0,0,144.509,46.965Z"/><path class="cls-1" d="M167.667,54.768V78.375q0,4.451,2.025,6.641t6.342,2.191q5.711,0,8.351-3.121t2.639-10.193V54.768h5.512V91.159h-4.549l-.8-4.881h-.3a10.984,10.984,0,0,1-4.7,4.117,15.788,15.788,0,0,1-6.856,1.428q-6.64,0-9.945-3.155t-3.3-10.093V54.768Z"/><path class="cls-1" d="M216.23,91.823q-7.9,0-12.235-4.865T199.662,73.2q0-9.131,4.4-14.112T216.6,54.1a24.9,24.9,0,0,1,5.246.564A17.322,17.322,0,0,1,225.959,56l-1.693,4.681a26.162,26.162,0,0,0-3.985-1.212,17.852,17.852,0,0,0-3.818-.481q-11.091,0-11.09,14.144,0,6.708,2.706,10.293t8.019,3.586a24.5,24.5,0,0,0,9.33-1.959V89.93A19.887,19.887,0,0,1,216.23,91.823Z"/><path class="cls-1" d="M236.969,54.768V78.375q0,4.451,2.025,6.641t6.342,2.191q5.709,0,8.35-3.121t2.64-10.193V54.768h5.512V91.159h-4.549l-.8-4.881h-.3a10.981,10.981,0,0,1-4.7,4.117,15.791,15.791,0,0,1-6.856,1.428q-6.642,0-9.945-3.155t-3.3-10.093V54.768Z"/><path class="cls-1" d="M317.129,91.159V67.485q0-4.35-1.86-6.525t-5.777-2.174q-5.148,0-7.6,2.955t-2.457,9.1V91.159H293.92V67.485q0-4.35-1.86-6.525t-5.81-2.174q-5.179,0-7.587,3.1t-2.407,10.177V91.159h-5.512V54.768h4.482l.9,4.98h.266a10.83,10.83,0,0,1,4.4-4.15,13.442,13.442,0,0,1,6.358-1.494q8.533,0,11.157,6.176h.265a11.611,11.611,0,0,1,4.715-4.516,14.637,14.637,0,0,1,7.039-1.66q6.176,0,9.247,3.171t3.072,10.143V91.159Z"/><path class="cls-1" d="M348.3,54.17q7.172,0,11.139,4.9t3.968,13.862q0,8.965-4,13.929T348.3,91.823a15.752,15.752,0,0,1-6.491-1.312,12.205,12.205,0,0,1-4.931-4.034h-.4l-1.162,4.682h-3.951V39.495h5.512v12.55q0,4.218-.266,7.571h.266Q340.727,54.171,348.3,54.17Zm-.8,4.616q-5.646,0-8.135,3.237t-2.49,10.907q0,7.669,2.557,10.974t8.2,3.3q5.079,0,7.57-3.7t2.49-10.641q0-7.106-2.49-10.592T347.5,58.786Z"/><path class="cls-1" d="M386.218,91.823q-8.069,0-12.734-4.914t-4.665-13.647q0-8.8,4.333-13.978A14.392,14.392,0,0,1,384.79,54.1q6.84,0,10.824,4.5t3.985,11.87v3.486H374.53q.167,6.409,3.237,9.729t8.65,3.32a29.3,29.3,0,0,0,11.621-2.457v4.914a29.107,29.107,0,0,1-5.528,1.81A31.093,31.093,0,0,1,386.218,91.823Zm-1.494-33.1a9,9,0,0,0-6.99,2.856,13.162,13.162,0,0,0-3.071,7.9h19.025q0-5.213-2.324-7.985A8.183,8.183,0,0,0,384.724,58.719Z"/><path class="cls-1" d="M423.121,54.1a21.633,21.633,0,0,1,4.35.4l-.764,5.114a18.787,18.787,0,0,0-3.984-.5,9.7,9.7,0,0,0-7.554,3.586,13.073,13.073,0,0,0-3.138,8.931V91.159h-5.512V54.768h4.549l.631,6.74h.266a15.974,15.974,0,0,1,4.881-5.478A10.991,10.991,0,0,1,423.121,54.1Z"/><path class="cls-1" d="M461.82,78.243a11.909,11.909,0,0,1-4.648,9.994q-4.65,3.585-12.617,3.586-8.634,0-13.282-2.225V84.153a34.835,34.835,0,0,0,6.508,1.992,34.231,34.231,0,0,0,6.973.73q5.644,0,8.5-2.141a7.029,7.029,0,0,0,2.855-5.96A7.663,7.663,0,0,0,455.1,74.64a9.442,9.442,0,0,0-3.387-2.972,47.542,47.542,0,0,0-7.222-3.088q-6.772-2.422-9.679-5.744A12.678,12.678,0,0,1,431.9,54.17a10.776,10.776,0,0,1,4.217-8.931q4.217-3.319,11.156-3.321a32.881,32.881,0,0,1,13.315,2.657l-1.76,4.914a30.1,30.1,0,0,0-11.688-2.524,11.312,11.312,0,0,0-7,1.926,6.345,6.345,0,0,0-2.524,5.346,8.193,8.193,0,0,0,.93,4.134,8.74,8.74,0,0,0,3.138,2.955,38.916,38.916,0,0,0,6.756,2.971q7.636,2.724,10.509,5.844A11.5,11.5,0,0,1,461.82,78.243Z"/><path class="cls-1" d="M481.788,87.274a17.871,17.871,0,0,0,2.822-.216,18.3,18.3,0,0,0,2.158-.448v4.217a10.053,10.053,0,0,1-2.639.713,19.73,19.73,0,0,1-3.138.283q-10.558,0-10.558-11.123V59.051H465.22V56.4l5.213-2.291,2.324-7.77h3.187v8.434H486.5v4.283H475.944V80.467a7.363,7.363,0,0,0,1.561,5.047A5.427,5.427,0,0,0,481.788,87.274Z"/><path class="cls-1" d="M498.336,54.768V78.375q0,4.451,2.025,6.641t6.342,2.191q5.711,0,8.351-3.121t2.639-10.193V54.768h5.512V91.159h-4.549l-.8-4.881h-.3a10.975,10.975,0,0,1-4.7,4.117,15.791,15.791,0,0,1-6.856,1.428q-6.642,0-9.945-3.155t-3.3-10.093V54.768Z"/><path class="cls-1" d="M557.078,86.278h-.3q-3.819,5.545-11.422,5.545-7.139,0-11.106-4.881t-3.968-13.879q0-9,3.984-13.979t11.09-4.98q7.4,0,11.356,5.379h.431l-.232-2.623-.133-2.557V39.495h5.512V91.159h-4.482Zm-11.023.929q5.643,0,8.184-3.071t2.54-9.911V73.063q0-7.735-2.573-11.04t-8.218-3.3a8.437,8.437,0,0,0-7.421,3.769q-2.574,3.768-2.573,10.641,0,6.974,2.557,10.526A8.656,8.656,0,0,0,546.055,87.207Z"/><path class="cls-1" d="M571.949,44.907a3.662,3.662,0,0,1,.93-2.773,3.44,3.44,0,0,1,4.615.017,3.593,3.593,0,0,1,.963,2.756,3.648,3.648,0,0,1-.963,2.772,3.212,3.212,0,0,1-2.291.913,3.176,3.176,0,0,1-2.324-.913A3.725,3.725,0,0,1,571.949,44.907Zm5.977,46.252h-5.512V54.768h5.512Z"/><path class="cls-1" d="M619.46,72.93q0,8.9-4.483,13.9t-12.384,5a16.4,16.4,0,0,1-8.666-2.291,15.118,15.118,0,0,1-5.844-6.575,22.9,22.9,0,0,1-2.059-10.027q0-8.9,4.45-13.862T602.825,54.1q7.637,0,12.136,5.08T619.46,72.93Zm-27.725,0q0,6.973,2.789,10.625t8.2,3.652q5.412,0,8.218-3.635t2.806-10.642q0-6.939-2.806-10.542t-8.284-3.6q-5.412,0-8.168,3.552T591.735,72.93Z"/><polygon class="cls-2" points="89.565 0 4.618 0 0 0 0 5.054 0 90.014 0 95 4.618 95 89.565 95 95 95 95 90.014 95 5.054 95 0 89.565 0"/><path class="cls-3" d="M39.949,84.18V74.948a31.536,31.536,0,0,1,8.044-62.032h.04a31.27,31.27,0,0,1,9.776,1.566c.383.111.832.279,1.276.448l.512.2c.171.068.341.134.513.207.525.208,1.128.48,1.848.834q.926.466,1.782.983c9.812,5.791,15.892,17.743,15.131,29.745C77.707,65.273,62.546,80.772,42.822,83.747ZM48.03,17.916H48a26.537,26.537,0,0,0-5.067,52.589l2.02.4v7.363C60.942,74.658,72.921,61.73,73.881,46.578c.645-10.173-4.455-20.272-12.69-25.128l-.019-.012c-.469-.282-.954-.55-1.443-.8-.578-.284-1.068-.506-1.519-.686-.18-.075-.308-.125-.438-.175l-.465-.177c-.325-.124-.652-.251-.985-.35A26.473,26.473,0,0,0,48.03,17.916Z"/><path class="cls-4" d="M42.162,29.872a2.763,2.763,0,0,1,2.427.933,6.377,6.377,0,0,1,1.116,1.7c.989,2.181,1.575,5.306.352,7.061a9.706,9.706,0,0,1-6.1-4.733,4.949,4.949,0,0,1-.533-2.053A3,3,0,0,1,42.162,29.872Z"/><path class="cls-4" d="M34.973,37.313a3.082,3.082,0,0,1,.49,0,5.63,5.63,0,0,1,2.21.492c2.2.944,4.658,3.248,5.13,5.291-1.886,1.258-5.287,1.155-7.488.212a11.911,11.911,0,0,1-1.867-1.13A2.709,2.709,0,0,1,34.973,37.313Z"/><path class="cls-4" d="M37.673,53.035a5.073,5.073,0,0,1-2.21.492A2.786,2.786,0,0,1,33.3,48.664a5.389,5.389,0,0,1,1.867-1.132,6.791,6.791,0,0,1,2.555-.539c1.431-.026,3.888-.345,5.079.448C42.489,49.485,39.874,52.091,37.673,53.035Z"/><path class="cls-4" d="M46.744,58.1a11.435,11.435,0,0,1-1.08,1.868c-1.572,2.044-5.218.609-5.061-2.064a4.738,4.738,0,0,1,.493-2.014c.943-2.2,3.508-4.905,5.709-5.377C48.063,52.4,47.687,56.052,46.744,58.1Z"/><path class="cls-4" d="M50.6,32.451a11.379,11.379,0,0,1,1.082-1.868,2.807,2.807,0,0,1,2.455-.982,2.937,2.937,0,0,1,2.752,3,4.966,4.966,0,0,1-.491,2.064,9.106,9.106,0,0,1-5.667,4.857C49.311,37.789,49.652,34.652,50.6,32.451Z"/><path class="cls-4" d="M51.971,59.963a6.366,6.366,0,0,1-1.08-1.72c-.944-2.2-.911-5.494.347-7.224,2.2.472,4.506,2.813,5.449,5.014a4.959,4.959,0,0,1,.492,2.062C57.337,60.454,53.7,61.85,51.971,59.963Z"/><path class="cls-4" d="M61.6,53.379a5.615,5.615,0,0,1-2.211-.491c-2.2-.943-4.613-3.148-5.084-5.191,1.209-.8,3.441-.878,4.888-.852a6.774,6.774,0,0,1,2.554.541,11.451,11.451,0,0,1,1.866,1.08C65.814,50.038,64.429,53.536,61.6,53.379Z"/><path class="cls-1" d="M135.083,8.2s-4.4-.5-6.215-.5c-2.637,0-3.987.942-3.987,2.793,0,2.009,1.13,2.48,4.8,3.485,4.52,1.255,6.152,2.448,6.152,6.12,0,4.709-2.95,6.749-7.188,6.749A45.733,45.733,0,0,1,121.617,26l.346-2.794s4.237.566,6.466.566c2.667,0,3.891-1.193,3.891-3.453,0-1.821-.973-2.449-4.269-3.233-4.645-1.193-6.654-2.606-6.654-6.34,0-4.333,2.857-6.121,7.157-6.121a47.7,47.7,0,0,1,6.811.752Z"/><path class="cls-1" d="M144.193,5h6.059l4.8,16.793L159.857,5h6.089V26.5h-3.515V7.919h-.185l-5.371,17.7h-3.641l-5.371-17.7h-.185V26.5h-3.485Z"/><path class="cls-1" d="M219.91,5H235.6V8.107h-6.058V26.5h-3.515V8.107H219.91Z"/><path class="cls-1" d="M250.766,5c4.269,0,6.56,1.6,6.56,5.587,0,2.606-.816,3.892-2.542,4.834,1.851.722,3.076,2.04,3.076,4.991,0,4.395-2.668,6.089-6.843,6.089H242.6V5Zm-4.678,3.013v6.153H250.7c2.135,0,3.076-1.067,3.076-3.171,0-2.071-1.067-2.982-3.2-2.982Zm0,9.1v6.372h4.741c2.165,0,3.452-.691,3.452-3.266,0-2.448-1.821-3.106-3.515-3.106Z"/><path class="cls-1" d="M266.5,5h13.56V8.045H269.981v6.089h8.193v2.983h-8.193v6.309h10.076V26.5H266.5Z"/><path class="cls-1" d="M292.551,5h6.937l5.336,21.5h-3.516l-1.587-6.309h-7.4L290.73,26.5h-3.484Zm.463,12.117h6.032l-2.226-9.2h-1.569Z"/><path class="cls-1" d="M316.063,20.129V26.5h-3.484V5h8.162c4.739,0,7.282,2.716,7.282,7.486,0,3.045-1.225,5.792-3.516,6.859l3.548,7.156h-3.83l-3.108-6.372Zm4.678-12.116h-4.678v9.1H320.8c2.636,0,3.64-2.371,3.64-4.6C324.444,10.069,323.252,8.013,320.741,8.013Z"/><path class="cls-1" d="M178.849,5h6.937l5.336,21.5h-3.516l-1.587-6.309h-7.4L177.028,26.5h-3.484Zm.463,12.117h6.032l-2.226-9.2h-1.569Z"/><path class="cls-1" d="M202.361,20.129V26.5h-3.484V5h8.162c4.739,0,7.282,2.716,7.282,7.486,0,3.045-1.225,5.792-3.516,6.859l3.548,7.156h-3.83l-3.108-6.372Zm4.678-12.116h-4.678v9.1H207.1c2.636,0,3.64-2.371,3.64-4.6C210.742,10.069,209.55,8.013,207.039,8.013Z"/></svg>